<svg id="Capa_1" enable-background="new 0 0 512 512" height="512" viewBox="0 0 512 512" width="512" xmlns="http://www.w3.org/2000/svg"><g><path d="m247.984 439.855c4.142 0 7.5-3.358 7.5-7.5s-3.358-7.5-7.5-7.5h-16.032c-4.142 0-7.5 3.358-7.5 7.5s3.358 7.5 7.5 7.5z"/><path d="m304.097 439.855c4.142 0 7.5-3.358 7.5-7.5s-3.358-7.5-7.5-7.5h-16.032c-4.142 0-7.5 3.358-7.5 7.5s3.358 7.5 7.5 7.5z"/><path d="m360.209 424.855h-16.032c-4.142 0-7.5 3.358-7.5 7.5s3.358 7.5 7.5 7.5h16.032c4.142 0 7.5-3.358 7.5-7.5s-3.357-7.5-7.5-7.5z"/><path d="m7.5 439.855h16.032c4.142 0 7.5-3.358 7.5-7.5s-3.358-7.5-7.5-7.5h-16.032c-4.142 0-7.5 3.358-7.5 7.5s3.358 7.5 7.5 7.5z"/><path d="m79.645 439.855c4.142 0 7.5-3.358 7.5-7.5s-3.358-7.5-7.5-7.5h-16.032c-4.142 0-7.5 3.358-7.5 7.5s3.358 7.5 7.5 7.5z"/><path d="m135.758 439.855c4.142 0 7.5-3.358 7.5-7.5s-3.358-7.5-7.5-7.5h-16.033c-4.142 0-7.5 3.358-7.5 7.5s3.358 7.5 7.5 7.5z"/><path d="m191.871 439.855c4.142 0 7.5-3.358 7.5-7.5s-3.358-7.5-7.5-7.5h-16.032c-4.142 0-7.5 3.358-7.5 7.5s3.358 7.5 7.5 7.5z"/><path d="m7.5 367.709h144.287c4.142 0 7.5-3.358 7.5-7.5s-3.358-7.5-7.5-7.5h-144.287c-4.142 0-7.5 3.358-7.5 7.5s3.358 7.5 7.5 7.5z"/><path d="m360.209 456.919h-352.709c-4.142 0-7.5 3.358-7.5 7.5s3.358 7.5 7.5 7.5h352.709c4.142 0 7.5-3.358 7.5-7.5s-3.357-7.5-7.5-7.5z"/><path d="m509.803 74.342-32.064-32.064c-2.929-2.929-7.678-2.929-10.606 0-2.929 2.929-2.929 7.678 0 10.606l10.729 10.729-29.072 29.071-17.37-17.37c-2.929-2.929-7.678-2.929-10.606 0-2.929 2.929-2.929 7.678 0 10.606l6.033 6.033-204.422 204.423c-7.32 7.32-8.781 18.294-4.422 27.095l-68.584 68.583c-2.641.457-5.737.736-9.706.736-9.696 0-14.226-1.648-19.472-3.556-5.747-2.09-12.26-4.46-24.6-4.46s-18.853 2.37-24.6 4.46c-5.246 1.908-9.775 3.556-19.471 3.556s-14.226-1.648-19.472-3.556c-5.747-2.09-12.26-4.46-24.6-4.46-4.142 0-7.5 3.358-7.5 7.5s3.358 7.5 7.5 7.5c9.696 0 14.226 1.648 19.472 3.556 5.747 2.09 12.26 4.46 24.6 4.46 12.339 0 18.853-2.37 24.599-4.46 5.246-1.908 9.775-3.556 19.472-3.556s14.227 1.648 19.472 3.556c5.747 2.09 12.26 4.46 24.6 4.46 12.342 0 18.857-2.369 24.605-4.46 5.247-1.908 9.779-3.556 19.478-3.556 9.704 0 14.237 1.648 19.487 3.557 5.75 2.09 12.266 4.459 24.612 4.459 12.343 0 18.858-2.369 24.606-4.46 5.247-1.908 9.779-3.556 19.479-3.556 9.708 0 14.244 1.648 19.496 3.557 5.751 2.09 12.27 4.459 24.619 4.459 12.35 0 18.868-2.369 24.62-4.459 5.251-1.909 9.787-3.557 19.495-3.557 4.142 0 7.5-3.358 7.5-7.5s-3.358-7.5-7.5-7.5c-12.349 0-18.868 2.369-24.619 4.459-5.252 1.909-9.788 3.557-19.496 3.557s-14.244-1.648-19.495-3.557c-5.751-2.09-12.27-4.459-24.62-4.459-12.342 0-18.857 2.369-24.605 4.459-5.247 1.909-9.779 3.557-19.479 3.557-9.704 0-14.237-1.648-19.487-3.557-5.75-2.09-12.266-4.459-24.612-4.459-2.213 0-4.232.079-6.1.216l17.281-17.281h165.232c4.142 0 7.5-3.358 7.5-7.5s-3.358-7.5-7.5-7.5h-150.232l18.632-18.631c3.285 1.627 6.866 2.46 10.455 2.46 6.025 0 12.053-2.294 16.64-6.881l165.234-165.234c2.929-2.929 2.929-7.678 0-10.606-2.929-2.929-7.678-2.929-10.606 0l-137.259 137.256-12.066-12.066 176.446-176.446 12.067 12.067-14.472 14.472c-2.929 2.929-2.929 7.678 0 10.606 1.464 1.464 3.384 2.197 5.303 2.197s3.839-.732 5.303-2.197l14.472-14.472 6.033 6.033c1.464 1.464 3.384 2.197 5.303 2.197s3.839-.732 5.303-2.197c2.929-2.929 2.929-7.678 0-10.606l-17.37-17.37 29.072-29.072 10.729 10.729c1.464 1.464 3.384 2.197 5.303 2.197s3.839-.732 5.303-2.197c2.929-2.929 2.929-7.678 0-10.606zm-247.336 227.338-17.37 17.37c-3.327 3.327-8.74 3.327-12.066 0-3.327-3.327-3.327-8.74 0-12.067l17.37-17.37z"/></g></svg>