<?xml version="1.0" encoding="iso-8859-1"?>
<!-- Generator: Adobe Illustrator 19.0.0, SVG Export Plug-In . SVG Version: 6.00 Build 0)  -->
<svg version="1.1" id="Capa_1" xmlns="http://www.w3.org/2000/svg" xmlns:xlink="http://www.w3.org/1999/xlink" x="0px" y="0px"
	 viewBox="0 0 508 508" style="enable-background:new 0 0 508 508;" xml:space="preserve">
<g>
	<g>
		<path d="M442.5,188.5c-11.8,0-23,3.1-32.8,8.8V90.1H0v278.6h122.9v32.8H98.3v16.4h213v-16.4h-24.6v-32.8h69.7
			c15.3,15.7,36.8,35.7,36.8,35.7S508,300.4,508,254C508,217.9,478.6,188.5,442.5,188.5z M270.4,401.5H139.3v-32.8h131.1V401.5z
			 M16.4,352.3V106.5h376.9v104.2c-6.8-7.8-15.2-13.6-24.6-17.4v-62.2H41v196.6h278.4c7,8.5,14.4,16.8,21.6,24.6H16.4z M306.3,311.5
			H57.4v-73.9h37.2l26.2-39.3l33.7,92.8l32.9-65.8l23.9,63.9l30.9-51.5h38.5c-1.4,5.2-2.2,10.7-2.2,16.4
			C278.5,269.2,290.4,290.1,306.3,311.5z M233,221.2l-18.2,30.4l-25.2-67.2l-32.7,65.3l-31.8-87.4l-39.3,59H57.4v-73.7h295V189
			c-2.8-0.3-41-6.2-65,32.2H233z M393.3,382.1C353.1,344.1,295,280,295,254c0-27.1,22.1-49.2,49.2-49.2c35,0,49.2,35.7,49.2,35.7
			s13.5-35.7,49.2-35.7c27.1,0,49.2,22.1,49.2,49.2C491.6,280,433.5,344.1,393.3,382.1z"/>
	</g>
</g>
<g>
</g>
<g>
</g>
<g>
</g>
<g>
</g>
<g>
</g>
<g>
</g>
<g>
</g>
<g>
</g>
<g>
</g>
<g>
</g>
<g>
</g>
<g>
</g>
<g>
</g>
<g>
</g>
<g>
</g>
</svg>
