<svg id="Capa_1" enable-background="new 0 0 480.016 480.016" height="512" viewBox="0 0 480.016 480.016" width="512" xmlns="http://www.w3.org/2000/svg"><circle cx="112.008" cy="60.518" r="16"/><path d="m256.008 240.016h16v16h-16z"/><path d="m256.008 280.016h16v16h-16z"/><path d="m328.008 280.016h16v16h-16z"/><path d="m360.008 280.016h16v16h-16z"/><path d="m344.008 256.016h16v16h-16z"/><path d="m5.94 116.458c1.672 13.529 11.279 24.743 24.39 28.473l33.678 9.622v47.22c.032 26.388 6.174 52.41 17.947 76.026l22.748 45.5 31.305 78.258v26.178l-13.781 9.187c-7.353 4.901-9.34 14.835-4.438 22.188l11.563 17.344c1.484 2.225 3.981 3.562 6.656 3.562h336c4.418 0 8-3.582 8-8v-88c-.035-45.792-18.565-89.628-51.385-121.561 6.111-13.925 9.825-28.783 10.985-43.946.432-1.31.517-2.71.245-4.063.1-2.131.156-4.274.156-6.43.026-21.53-5.091-42.754-14.925-61.907l6.038-24.153c1.07-4.287-1.537-8.629-5.824-9.7-3.187-.796-6.536.437-8.446 3.11-2.039 2.855-4.017 5.748-5.933 8.679-36.818-46.949-99.956-64.388-155.652-42.991l-.436-.712c-.053-.088-.109-.176-.167-.262l-33.956-50.939c-10.187-15.383-26.922-25.182-45.322-26.54l-30.492-2.349c-32.451-2.579-63.208 14.836-77.692 43.989l-8.138 16.275h-51.056c-4.418 0-8 3.581-8.001 7.999 0 .335.021.669.063 1.001zm170.068 312.245-9.02 9.019c-5.377 5.401-6.212 13.838-2 20.189l4.072 6.105h-28.771l-9.187-13.781 17.344-11.563c2.225-1.484 3.562-3.981 3.562-6.656v-32c0-1.018-.194-2.026-.572-2.971l-19.414-48.536 43.986 39.1zm144 35.313h-32v-80h32zm8-96h-48v-26.121c15.875 2.828 32.125 2.828 48 0zm90.949-194.459c3.356 11.178 5.058 22.788 5.051 34.459h-8.524c.362-11.553 1.523-23.067 3.473-34.459zm-3.6 76.1v-25.641h7.578c-1.355 10.132-4.011 20.047-7.9 29.5.214-1.275.323-2.566.326-3.859zm5.572 27.742c27.608 28.63 43.048 66.844 43.079 106.617v80h-128v-32h40c4.418 0 8-3.581 8.001-7.999 0-1.872-.656-3.685-1.855-5.123l-9.272-11.125c-16.533-19.762-26.483-44.193-28.459-69.883 32.075-10.065 59.315-31.6 76.51-60.487zm-84.921 138.617v-32c1.132-.001 2.252-.243 3.283-.71 5.036 11.747 11.653 22.752 19.666 32.71zm72.512-149.846c.365-.365.713-.745 1.05-1.13-31.468 58.298-104.238 80.048-162.536 48.58-19.583-10.57-35.839-26.38-46.951-45.661 9.257 8.018 23.136 7.518 31.792-1.144l.645-.645c4.394-4.37 6.858-10.316 6.841-16.513v-25.641h51.916c-1.148 6.514-2.056 13.074-2.724 19.68l-.429 4.285c-1.284 12.833 8.078 24.277 20.911 25.561 6.971.698 13.887-1.771 18.84-6.726l.645-.645c4.394-4.37 6.858-10.316 6.841-16.513v-25.642h35.916c-1.148 6.514-2.056 13.074-2.724 19.68l-.429 4.285c-1.284 12.833 8.078 24.277 20.911 25.561 6.971.698 13.887-1.771 18.84-6.726zm-200.476-16.6.429-4.285c2.488-24.8 8.662-49.091 18.319-72.069-2.283 14.09-3.43 28.34-3.431 42.613v33.831c.005 1.952-.772 3.825-2.157 5.2l-.645.646c-2.872 2.871-7.528 2.87-10.399-.002-1.558-1.559-2.335-3.735-2.116-5.928zm96 0 .429-4.285c2.488-24.8 8.662-49.091 18.319-72.069-2.283 14.09-3.43 28.34-3.431 42.613v33.831c.005 1.952-.772 3.825-2.157 5.2l-.645.646c-2.872 2.871-7.528 2.87-10.399-.002-1.558-1.559-2.335-3.735-2.116-5.928zm95.317-33.748v33.831c.005 1.952-.772 3.825-2.157 5.2l-.645.646c-2.872 2.871-7.528 2.87-10.399-.002-1.558-1.559-2.335-3.735-2.116-5.928l.429-4.285c2.488-24.8 8.663-49.09 18.319-72.068-2.282 14.089-3.43 28.338-3.431 42.61zm-158.807-128.064c-5.755 3.05-11.285 6.508-16.546 10.349v-32.645c0-.913-.055-1.826-.143-2.736zm63.454.258c38.945.007 75.462 18.922 97.934 50.729-12.302 21.701-21.502 45.017-27.334 69.271h-39.124c.559-17.851 3.023-35.592 7.352-52.919l8.285-33.141c1.07-4.287-1.537-8.629-5.824-9.7-3.187-.796-6.536.437-8.446 3.11-19.898 27.885-34.24 59.341-42.243 92.65h-55.124c.559-17.851 3.024-35.592 7.352-52.919l8.285-33.141c1.07-4.287-1.537-8.629-5.824-9.7-3.187-.796-6.536.437-8.446 3.11-19.898 27.885-34.24 59.341-42.243 92.65h-14.6c.075-66.243 53.757-119.925 120-120zm-111.979 163.129c-3.377-8.738-5.71-17.844-6.952-27.129h10.2c-1.148 6.514-2.056 13.074-2.724 19.68l-.429 4.285c-.102 1.051-.134 2.108-.095 3.164zm-13.759-94.929c-15.157-10.31-23.018-28.431-20.191-46.543l6.966-45.278c1.018-6.849 6.913-11.91 13.837-11.879h16.182c4.908-.016 9.398 2.759 11.578 7.156.896 1.799 1.364 3.78 1.366 5.79v46.314c-12.746 12.707-22.852 27.81-29.738 44.44zm-130.312-79.7h16.05c3.03 0 5.8-1.712 7.155-4.422l10.35-20.7c11.586-23.322 36.191-37.253 62.15-35.191l30.493 2.35c13.494.995 25.766 8.182 33.236 19.463l1.23 1.845c-4.179-2.204-8.833-3.353-13.558-3.345h-16.182c-14.833-.069-27.465 10.769-29.651 25.44l-6.966 45.28c-4.021 25.764 8.144 51.362 30.66 64.514-3.269 11.811-4.923 24.011-4.917 36.266 0 2.156.056 4.3.156 6.43-.272 1.353-.187 2.753.245 4.063 4.393 55.65 42.272 102.998 95.6 119.5v38.007c0 4.418 3.582 8 8 8v80h-32.001v-96c0-1.58-.468-3.124-1.344-4.438l-16-24c-2.431-3.689-7.393-4.708-11.082-2.277s-4.709 7.393-2.277 11.082c.016.024.031.047.047.071l14.656 21.984v93.578h-35.719l-9.981-14.981 11.362-11.362c1.498-1.501 2.339-3.536 2.338-5.657v-48c0-2.285-.978-4.461-2.686-5.979l-70.848-62.977-22.208-44.416c-10.665-21.394-16.229-44.967-16.258-68.871v-53.257c0-3.571-2.367-6.71-5.8-7.692l-39.485-11.279c-6.939-1.974-12.022-7.91-12.906-15.07l-1.109-8.882 4.584-1.144c12.93-3.229 22.169-14.616 22.666-27.933zm-16 0c-.495 5.97-4.738 10.961-10.55 12.41l-2.7.675-1.638-13.085z"/></svg>