<?xml version="1.0" encoding="iso-8859-1"?>
<!-- Generator: Adobe Illustrator 19.0.0, SVG Export Plug-In . SVG Version: 6.00 Build 0)  -->
<svg version="1.1" id="Capa_1" xmlns="http://www.w3.org/2000/svg" xmlns:xlink="http://www.w3.org/1999/xlink" x="0px" y="0px"
	 viewBox="0 0 512 512" style="enable-background:new 0 0 512 512;" xml:space="preserve">
<g>
	<g>
		<g>
			<path d="M235.235,129.898v14.831c0,5.943,4.836,10.779,10.779,10.779h19.971c5.943,0,10.779-4.835,10.779-10.779v-14.833h14.833
				c5.943,0,10.779-4.836,10.779-10.779V99.146c0-5.943-4.836-10.779-10.779-10.779h-14.833V73.534
				c0-5.943-4.836-10.779-10.779-10.779h-19.971c-5.943,0-10.779,4.835-10.779,10.779v14.834h-14.833
				c-5.943,0-10.779,4.835-10.779,10.779v19.972c0,5.943,4.836,10.779,10.779,10.779H235.235z M224.623,103.368h15.51
				c5.57,0,10.103-4.532,10.103-10.102v-15.51h11.529v15.51c0,5.57,4.532,10.102,10.103,10.102h15.51v11.529h-15.51
				c-5.57,0-10.103,4.532-10.103,10.102v15.51h-11.529v-15.51c0-5.57-4.532-10.102-10.103-10.102h-15.51V103.368z"/>
			<path d="M504.5,249.767c4.143,0,7.5-3.358,7.5-7.5v-4.815c0-9.903-8.057-17.959-17.959-17.959h-26.017
				c-9.903,0-17.96,8.056-17.96,17.959v3.314h-56.897l-5.856-13.136c-5.228-11.73-16.906-19.311-29.75-19.311H275.49
				c-10.088,0-19.438,4.557-25.654,12.503c-4.536,5.799-6.907,12.785-6.92,19.943h-51.825l1.251-2.089
				c4.035-6.742,4.035-15.119-0.001-21.862l-3.01-5.028c-4.655-7.777-13.179-12.609-22.243-12.609H95.75
				c-9.064,0-17.588,4.831-22.242,12.608l-3.012,5.029c-4.036,6.743-4.036,15.12,0.001,21.863l1.25,2.088h-9.811v-59.781
				c0-9.903-8.057-17.96-17.96-17.96H17.959C8.057,163.025,0,171.081,0,180.984v141.74c0,20.442,16.631,37.072,37.072,37.072H60.68
				v57.525c-7.391,5.982-12.129,15.12-12.129,25.348c0,17.979,14.627,32.605,32.606,32.605s32.604-14.626,32.604-32.605
				c0-10.228-4.737-19.366-12.129-25.348v-16.559h308.736v16.559c-7.392,5.982-12.129,15.121-12.129,25.348
				c0,17.979,14.626,32.605,32.605,32.605c17.978,0,32.605-14.626,32.605-32.605c0-10.228-4.737-19.366-12.129-25.348v-57.525
				h23.607c20.441,0,37.072-16.63,37.072-37.072V276.59c0-4.142-3.357-7.5-7.5-7.5s-7.5,3.358-7.5,7.5v46.134
				c0,12.171-9.901,22.072-22.072,22.072H146.199c-4.143,0-7.5,3.358-7.5,7.5c0,4.142,3.357,7.5,7.5,7.5h264.169v25.966H101.632
				v-25.966h9.15c4.143,0,7.5-3.358,7.5-7.5c0-4.142-3.357-7.5-7.5-7.5h-73.71c-12.171,0-22.072-9.901-22.072-22.072v-141.74
				c0-1.632,1.327-2.96,2.959-2.96h26.017c1.632,0,2.96,1.328,2.96,2.96V306.22c0,8.711,7.087,15.797,15.797,15.797h205.165
				c0.008,0,0.015,0.002,0.023,0.002c0.011,0,0.022-0.002,0.032-0.002h66.887c0.006,0,0.011,0.001,0.017,0.001
				c0.009,0,0.018-0.001,0.026-0.001h114.384c8.71,0,15.797-7.086,15.797-15.797v-68.768c0-1.632,1.328-2.959,2.96-2.959h26.017
				c1.632,0,2.959,1.327,2.959,2.959v4.815C497,246.409,500.357,249.767,504.5,249.767z M425.367,359.796h0.001h10.952v50.738
				c-1.782-0.303-3.61-0.469-5.477-0.469s-3.694,0.166-5.476,0.469V359.796z M430.844,425.065c9.708,0,17.605,7.897,17.605,17.605
				s-7.897,17.605-17.605,17.605c-9.707,0-17.605-7.897-17.605-17.605S421.137,425.065,430.844,425.065z M75.68,359.796h10.952
				v50.737c-1.782-0.303-3.609-0.469-5.475-0.469c-1.867,0-3.695,0.166-5.477,0.469V359.796z M81.156,425.065
				c9.707,0,17.604,7.897,17.604,17.605s-7.897,17.605-17.604,17.605c-9.708,0-17.606-7.897-17.606-17.605
				C63.551,432.962,71.448,425.065,81.156,425.065z M261.65,230.064c3.354-4.287,8.398-6.745,13.84-6.745h30.828l3.989,17.446
				h-52.389C257.937,236.924,259.215,233.178,261.65,230.064z M83.366,224.519l3.012-5.029c1.961-3.277,5.553-5.313,9.372-5.313
				h71.339c3.819,0,7.411,2.036,9.373,5.313l3.01,5.027c1.191,1.991,1.191,4.465,0.001,6.455l-3.012,5.029
				c-1.372,2.293-3.55,3.958-6.038,4.764H92.416c-2.488-0.805-4.667-2.471-6.039-4.764l-3.01-5.028
				C82.175,228.982,82.175,226.509,83.366,224.519z M62.732,307.017c-0.439,0-0.797-0.357-0.797-0.797v-50.454h28.571
				c1.711,0.357,3.466,0.549,5.243,0.549h71.339c1.778,0,3.532-0.192,5.243-0.549h73.289l12.717,51.251H62.732z M273.793,307.017
				l-12.717-51.251h52.661l11.719,51.251H273.793z M321.705,223.319h35.856c6.929,0,13.229,4.089,16.049,10.417l3.133,7.029h-51.049
				L321.705,223.319z M392.646,307.017L392.646,307.017h-51.802l-11.719-51.251h54.306l0.411,0.921
				c5.842,13.104,8.804,27.022,8.804,41.368V307.017z M450.065,306.22L450.065,306.22c0,0.44-0.358,0.797-0.797,0.797h-41.623
				v-8.962c0-14.585-2.673-28.783-7.942-42.289h50.362V306.22z"/>
			<path d="M256,181.538c39.925,0,72.406-32.482,72.406-72.406c0-39.925-32.482-72.407-72.406-72.407s-72.406,32.481-72.406,72.407
				C183.594,149.057,216.075,181.538,256,181.538z M256,51.725c31.654,0,57.406,25.752,57.406,57.407
				c0,31.654-25.752,57.406-57.406,57.406s-57.406-25.753-57.406-57.406C198.594,77.478,224.346,51.725,256,51.725z"/>
			<circle cx="81.156" cy="442.67" r="7.284"/>
			<circle cx="430.844" cy="442.67" r="7.284"/>
		</g>
	</g>
</g>
<g>
</g>
<g>
</g>
<g>
</g>
<g>
</g>
<g>
</g>
<g>
</g>
<g>
</g>
<g>
</g>
<g>
</g>
<g>
</g>
<g>
</g>
<g>
</g>
<g>
</g>
<g>
</g>
<g>
</g>
</svg>
