<svg id="Capa_1" enable-background="new 0 0 512 512" height="50" viewBox="0 0 512 512" width="50" xmlns="http://www.w3.org/2000/svg"><g><circle cx="437" cy="256" r="7.5"/><path fill="red" d="m495.353 208.894c-9.295-11.493-21.864-20.019-35.853-24.429v-98.215c0-47.559-38.691-86.25-86.25-86.25s-86.25 38.691-86.25 86.25v312.75c0 37.495-30.505 68-68 68s-68-30.505-68-68v-16.468c60.879-10.742 106-64.005 106-126.532v-45c0-4.142-3.357-7.5-7.5-7.5h-22.5v-128.5c0-18.953-14.136-34.657-32.417-37.146.914-2.447 1.417-5.092 1.417-7.854 0-2.53-.426-4.961-1.2-7.233 26.469 2.666 47.2 25.073 47.2 52.233v106c0 4.142 3.357 7.5 7.5 7.5s7.5-3.358 7.5-7.5v-106c0-37.22-30.28-67.5-67.5-67.5h-18.664c-5.449-4.802-12.506-7.5-19.836-7.5-8.954 0-16.999 3.948-22.5 10.189-5.501-6.241-13.546-10.189-22.5-10.189-7.33 0-14.387 2.699-19.837 7.5h-18.663c-37.22 0-67.5 30.28-67.5 67.5v181c0 62.527 45.121 115.79 106 126.532v16.468c0 62.309 50.691 113 113 113s113-50.691 113-113v-312.75c0-22.745 18.505-41.25 41.25-41.25s41.25 18.505 41.25 41.25v98.215c-13.989 4.41-26.558 12.936-35.853 24.429-10.735 13.274-16.647 30.003-16.647 47.106 0 41.355 33.645 75 75 75s75-33.645 75-75c0-17.103-5.912-33.832-16.647-47.106zm-344.353-193.894c4.258 0 8.332 1.823 11.178 5.002 1.423 1.589 3.455 2.498 5.588 2.498h5.734c4.136 0 7.5 3.364 7.5 7.5s-3.364 7.5-7.5 7.5h-5.734c-2.133 0-4.166.909-5.589 2.498-2.845 3.179-6.919 5.002-11.177 5.002-8.271 0-15-6.729-15-15s6.729-15 15-15zm-67.5 7.5h5.733c2.133 0 4.165-.908 5.588-2.497 2.847-3.179 6.921-5.003 11.179-5.003 8.271 0 15 6.729 15 15s-6.729 15-15 15c-4.258 0-8.332-1.824-11.179-5.003-1.423-1.589-3.455-2.497-5.588-2.497h-5.733c-4.136 0-7.5-3.364-7.5-7.5s3.364-7.5 7.5-7.5zm2.663 30c5.45 4.801 12.507 7.5 19.837 7.5 8.954 0 16.999-3.948 22.5-10.189 5.501 6.241 13.546 10.189 22.5 10.189 7.331 0 14.387-2.698 19.836-7.5h18.664c12.406 0 22.5 10.093 22.5 22.5v151c0 46.042-37.458 83.5-83.5 83.5s-83.5-37.458-83.5-83.5v-151c0-12.407 10.094-22.5 22.5-22.5zm120.075 233.919c-12.188 31.039-42.428 53.081-77.738 53.081s-65.55-22.042-77.738-53.081c18.039 23.158 46.177 38.081 77.738 38.081s59.699-14.923 77.738-38.081zm-191.238-211.419c0-27.16 20.731-49.567 47.2-52.233-.774 2.272-1.2 4.703-1.2 7.233 0 2.762.503 5.407 1.417 7.854-18.281 2.489-32.417 18.193-32.417 37.146v128.5h-15zm358.25-45c-31.017 0-56.25 25.234-56.25 56.25v312.75c0 54.038-43.963 98-98 98s-98-43.962-98-98v-22.925c0-3.786-2.822-6.979-6.579-7.443-56.68-7.009-99.421-55.43-99.421-112.632v-37.5h15v37.5c0 54.313 44.187 98.5 98.5 98.5s98.5-44.187 98.5-98.5v-37.5h15v37.5c0 57.202-42.741 105.623-99.42 112.631-3.758.465-6.58 3.657-6.58 7.443v22.926c0 45.767 37.233 83 83 83s83-37.233 83-83v-312.75c0-39.288 31.963-71.25 71.25-71.25s71.25 31.962 71.25 71.25v34.75h-15v-34.75c0-31.016-25.233-56.25-56.25-56.25zm56.25 121v-15h15v15zm15 15v45.637c-2.441-.411-4.944-.637-7.5-.637s-5.059.226-7.5.637v-45.637zm-7.5 60c16.542 0 30 13.458 30 30s-13.458 30-30 30-30-13.458-30-30 13.458-30 30-30zm0 90c-33.084 0-60-26.916-60-60 0-24.947 15.019-46.637 37.5-55.631v16.685c-13.437 7.793-22.5 22.326-22.5 38.946 0 24.813 20.187 45 45 45s45-20.187 45-45c0-16.62-9.063-31.153-22.5-38.946v-16.685c22.481 8.994 37.5 30.684 37.5 55.631 0 33.084-26.916 60-60 60z"/></g></svg>